<svg xmlns="http://www.w3.org/2000/svg" viewBox="0 0 19 22" width="19" height="22"><defs></defs><g transform="matrix(1,0,0,1,-3,-3)">
<rect fill="#000000" fill-opacity="0" x="3" y="3" width="20" height="23"/>
<g transform="matrix(1,0,0,1,3,3)">
	<g transform="matrix(1,0,0,1,16,16)">
		<g transform="matrix(1,0,0,1,-4,-6.5)">
			<path d="M-11.251638,-2.026009C-11.251638,-3.378576 -10.152947,-4.477267 -8.80038,-4.477267 L 0.80038,-4.477267 C2.152947,-4.477267 3.251638,-3.378576 3.251638,-2.026009 L 3.251638,10.026009 C3.251638,11.378576 2.152947,12.477267 0.80038,12.477267 L -8.80038,12.477267 C-10.152947,12.477267 -11.251638,11.378576 -11.251638,10.026009 L -11.251638,-2.026009 Z" transform="matrix(1,0,0,1,0,0)" fill="none" stroke="#ffffff" stroke-linecap="round" stroke-linejoin="round"/>
		</g>
		<g transform="matrix(1,0,0,1,-4,-6.5)">
			<path d="M-7.251638,-6.026009C-7.251638,-7.378576 -6.152947,-8.477267 -4.80038,-8.477267 L 4.80038,-8.477267 C6.152947,-8.477267 7.251638,-7.378576 7.251638,-6.026009 L 7.251638,6.026009 C7.251638,7.378576 6.152947,8.477267 4.80038,8.477267 L -4.80038,8.477267 C-6.152947,8.477267 -7.251638,7.378576 -7.251638,6.026009 L -7.251638,-6.026009 Z" fill="#ffffff" stroke="#ffffff" stroke-linecap="round" stroke-linejoin="round"/>
		</g>
	</g>
</g></g></svg>