<?xml version="1.0" encoding="UTF-8" standalone="no"?>
<!-- Created with Inkscape (http://www.inkscape.org/) -->

<svg
   width="15.197005mm"
   height="15.875mm"
   viewBox="0 0 15.197005 15.875"
   version="1.1"
   id="svg1"
   xmlns:inkscape="http://www.inkscape.org/namespaces/inkscape"
   xmlns:sodipodi="http://sodipodi.sourceforge.net/DTD/sodipodi-0.dtd"
   xmlns="http://www.w3.org/2000/svg"
   xmlns:svg="http://www.w3.org/2000/svg">
  <sodipodi:namedview
     id="namedview1"
     pagecolor="#505050"
     bordercolor="#eeeeee"
     borderopacity="1"
     inkscape:showpageshadow="0"
     inkscape:pageopacity="0"
     inkscape:pagecheckerboard="0"
     inkscape:deskcolor="#d1d1d1"
     inkscape:document-units="mm" />
  <defs
     id="defs1" />
  <g
     inkscape:label="Layer 1"
     inkscape:groupmode="layer"
     id="layer1"
     transform="translate(-97.366663,-140.49374)">
    <path
       d="m 112.5478,141.2875 v 3.07445 c 0,0.43895 -0.35746,0.79375 -0.79375,0.79375 -0.43921,0 -0.79375,-0.3548 -0.79375,-0.79375 v -1.15887 l -3.06652,3.06652 c -0.31221,0.31221 -0.81201,0.31221 -1.12448,0 l -2.95011,-2.9501 -5.095873,5.09852 c -0.156104,0.1561 -0.359833,0.23283 -0.563562,0.23283 -0.201084,0 -0.404813,-0.0767 -0.560917,-0.23283 -0.309562,-0.30983 -0.309562,-0.81227 0,-1.12184 l 5.659442,-5.6597 c 0.30956,-0.30956 0.81227,-0.30956 1.12183,0 l 2.9501,2.95011 2.50825,-2.50534 h -1.16152 c -0.4363,0 -0.79375,-0.35455 -0.79375,-0.79375 0,-0.43921 0.35745,-0.79375 0.79375,-0.79375 h 3.07711 c 0.0556,0 0.10821,0.005 0.15875,0.0159 0.0476,0.0106 0.0952,0.0238 0.14023,0.0423 0.0238,0.0106 0.0476,0.0212 0.0688,0.0317 0.18521,0.0979 0.32808,0.26459 0.38893,0.46832 0.008,0.0241 0.0161,0.0503 0.0212,0.0741 0,0.006 0,0.008 0.003,0.0106 0.008,0.0503 0.0132,0.10055 0.0132,0.15082 z"
       id="path1"
       style="fill:#f9f9f9;stroke-width:0.264583" />
    <g
       id="g2"
       style="fill:#f9f9f9"
       transform="matrix(0.26458333,0,0,0.26458333,91.727734,135.20208)">
      <path
         d="M 36.48,60.17 V 77 c 0,1.66 -1.35,3 -3,3 h -8.77 c -1.66,0 -3,-1.34 -3,-3 V 60.17 c 0,-1.65 1.34,-3 3,-3 h 8.77 c 1.65,0 3,1.35 3,3 z"
         id="path2"
         style="fill:#f9f9f9" />
    </g>
    <path
       d="m 106.97038,148.08438 v 7.49062 c 0,0.4392 -0.35481,0.79375 -0.79375,0.79375 h -2.3204 c -0.43656,0 -0.79375,-0.35455 -0.79375,-0.79375 v -7.49062 c 0,-0.43921 0.35719,-0.79375 0.79375,-0.79375 h 2.32066 c 0.43895,0 0.79349,0.35454 0.79349,0.79375 z"
       id="path3"
       style="fill:#f9f9f9;stroke-width:0.264583" />
    <g
       id="g4"
       style="fill:#f9f9f9"
       transform="matrix(0.26458333,0,0,0.26458333,91.727734,135.20208)">
      <path
         d="M 78.75,66.18 V 77 c 0,1.66 -1.34,3 -3,3 h -8.77 c -1.66,0 -3,-1.34 -3,-3 V 66.18 c 0,-1.66 1.34,-3 3,-3 h 8.77 c 1.66,0 3,1.34 3,3 z"
         id="path4"
         style="fill:#f9f9f9" />
    </g>
  </g>
</svg>
