<svg xmlns="http://www.w3.org/2000/svg" xmlns:xlink="http://www.w3.org/1999/xlink" version="1.1" x="0px" y="0px" viewBox="0 0 100 125" enable-background="new 0 0 100 100" xml:space="preserve"><path d="M78.69,23v11.62c0,1.659-1.351,3-3,3c-1.66,0-3-1.341-3-3v-4.38L61.1,41.83c-1.18,1.18-3.069,1.18-4.25,0L45.7,30.68  L26.44,49.95c-0.59,0.59-1.36,0.88-2.13,0.88c-0.76,0-1.53-0.29-2.12-0.88c-1.17-1.171-1.17-3.07,0-4.24l21.39-21.391  c1.17-1.17,3.07-1.17,4.24,0l11.15,11.15L68.45,26H64.06c-1.649,0-3-1.34-3-3s1.351-3,3-3H75.69c0.21,0,0.409,0.02,0.6,0.06  c0.18,0.04,0.36,0.09,0.53,0.16c0.09,0.04,0.18,0.08,0.26,0.12c0.7,0.37,1.24,1,1.47,1.77c0.03,0.091,0.061,0.19,0.08,0.28  c0,0.021,0,0.03,0.01,0.04C78.67,22.62,78.69,22.81,78.69,23z"/><g><path d="M36.48,60.17V77c0,1.66-1.35,3-3,3h-8.77c-1.66,0-3-1.34-3-3V60.17c0-1.65,1.34-3,3-3h8.77   C35.13,57.17,36.48,58.52,36.48,60.17z"/></g><g><path d="M57.61,48.689V77c0,1.66-1.341,3-3,3H45.84c-1.65,0-3-1.34-3-3V48.689c0-1.66,1.35-3,3-3h8.771   C56.27,45.689,57.61,47.029,57.61,48.689z"/></g><g><path d="M78.75,66.18V77c0,1.66-1.34,3-3,3h-8.77c-1.66,0-3-1.34-3-3V66.18c0-1.66,1.34-3,3-3h8.77   C77.41,63.18,78.75,64.52,78.75,66.18z"/></g><text x="0" y="115" fill="#000000" font-size="5px" font-weight="bold" font-family="'Helvetica Neue', Helvetica, Arial-Unicode, Arial, Sans-serif">Created by ChangHoon Baek</text><text x="0" y="120" fill="#000000" font-size="5px" font-weight="bold" font-family="'Helvetica Neue', Helvetica, Arial-Unicode, Arial, Sans-serif">from the Noun Project</text></svg>